{"title":"Mahabharat Full Bengali Episod","uid":11071954,"size":20905704853,"categoryP":"video","categoryS":"tv_shows","magnet":"?xt=urn:btih:0d46bdffde8bc36fd13a73739714af9bbed8b87c&amp;dn=Mahabharat+Full+Bengali+Episod&amp;tr=udp%3A%2F%2Ftracker.openbittorrent.com%3A80&amp;tr=udp%3A%2F%2Fopen.demonii.com%3A1337&amp;tr=udp%3A%2F%2Ftracker.coppersurfer.tk%3A6969&amp;tr=udp%3A%2F%2Fexodus.desync.com%3A6969","seeders":0,"leechers":1,"uploader":"surjogk","files":-1,"time":1411285044,"description":"[center][b][color='blue'][size='xx-large']Mahabharat Bengali Full Episod[/size][/color][/b][/center]\n\n[i][color='red'][size='x-large']Please Keep Seeding[/size][/color][/i]\n\n\n\nMedia Info: \n\n[size='small'][code]General\nComplete name                            : Mahabharat [Bengali] - [Full Episode]\nFormat                                   : MPEG-4\nFormat profile                           : Base Media / Version 2\nCodec ID                                 : mp42\nFile size                                : 30.10 GB\n\nOverall bit rate mode                    : Variable\nOverall bit rate                         : 596 Kbps\nEncoded date                             : UTC 2014-01-27 10:55:36\nTagged date                              : UTC 2014-01-27 10:55:36\ngsst                                     : 0\ngstd                                     : 1214705\ngssd                                     : BB4EA0206HH1396068237270120\ngshh                                     : r3---sn-50bxgx-q5je.googlevideo.com\n\nVideo\nID                                       : 1\nFormat                                   : AVC\nFormat/Info                              : Advanced Video Codec\nFormat profile                           : &lt;a class=&quot;__cf_email__&quot; href=&quot;/cdn-cgi/l/email-protection&quot; data-cfemail=&quot;6e2c0f1d0b0207000b2e225c405f&quot;&gt;[email&amp;#160;protected]&lt;/a&gt;&lt;script data-cfhash='f9e31' type=&quot;text/javascript&quot;&gt;\n/* &lt;![CDATA[ */!function(){try{var t=&quot;currentScript&quot;in document?document.currentScript:function(){for(var t=document.getElementsByTagName(&quot;script&quot;),e=t.length;e--;)if(t[e].getAttribute(&quot;data-cfhash&quot;))return t[e]}();if(t&amp;&amp;t.previousSibling){var e,r,n,i,c=t.previousSibling,a=c.getAttribute(&quot;data-cfemail&quot;);if(a){for(e=&quot;&quot;,r=parseInt(a.substr(0,2),16),n=2;a.length-n;n+=2)i=parseInt(a.substr(n,2),16)^r,e+=String.fromCharCode(i);e=document.createTextNode(e),c.parentNode.replaceChild(e,c)}t.parentNode.removeChild(t);}}catch(u){}}()/* ]]&gt; */&lt;/script&gt;\nFormat settings, CABAC                   : No\nFormat settings, ReFrames                : 1 frame\nCodec ID                                 : avc1\nCodec ID/Info                            : Advanced Video Coding\nDuration                                 : 20mn 14s\nBit rate                                 : 498 Kbps\nMaximum bit rate                         : 1 594 Kbps\nWidth                                    : 480 pixels\nHeight                                   : 360 pixels\nDisplay aspect ratio                     : 4:3\nFrame rate mode                          : Constant\nFrame rate                               : 25.000 fps\nColor space                              : YUV\nChroma subsampling                       : 4:2:0\nBit depth                                : 8 bits\nScan type                                : Progressive\nBits/(Pixel*Frame)                       : 0.115\nStream size                              : 72.1 MiB (83%)\nTagged date                              : UTC 2014-01-27 10:55:44\n\nAudio\nID                                       : 2\nFormat                                   : AAC\nFormat/Info                              : Advanced Audio Codec\nFormat profile                           : LC\nCodec ID                                 : 40\n\nBit rate mode                            : Variable\nBit rate                                 : 96.0 Kbps\nMaximum bit rate                         : 102 Kbps\nChannel(s)                               : 2 channels\nChannel positions                        : Front: L R\nSampling rate                            : 44.1 KHz\nCompression mode                         : Lossy\nStream size                              : 13.9 MiB (16%)\nTitle                                    : IsoMedia File Produced by Google, 5-11-2011\nEncoded date                             : UTC 2014-01-27 10:55:41\nTagged date                              : UTC 2014-01-27 10:55:44\n[/code][/size]\n","torrent":{"xt":"urn:btih:0d46bdffde8bc36fd13a73739714af9bbed8b87c","amp;dn":"Mahabharat+Full+Bengali+Episod","amp;tr":["udp%3A%2F%2Ftracker.openbittorrent.com%3A80","udp%3A%2F%2Fopen.demonii.com%3A1337","udp%3A%2F%2Ftracker.coppersurfer.tk%3A6969","udp%3A%2F%2Fexodus.desync.com%3A6969"],"infoHash":"0d46bdffde8bc36fd13a73739714af9bbed8b87c","infoHashBuffer":{"type":"Buffer","data":[13,70,189,255,222,139,195,111,209,58,115,115,151,20,175,155,190,216,184,124]},"announce":[],"urlList":[]}}